<svg width="238" height="21" viewBox="0 0 238 21" fill="none" xmlns="http://www.w3.org/2000/svg">
<path d="M12.248 20H0.408V0.863998H3.768V16.8H12.248V20ZM19.143 20H15.783V0.863998H19.143V20ZM27.1118 5.44V15.456C27.1118 15.6267 27.2824 15.8827 27.6238 16.224C27.9864 16.544 28.3064 16.7787 28.5838 16.928H28.6158C28.6584 16.9493 28.7011 16.96 28.7438 16.96H33.0958L33.2558 16.928C33.5118 16.7787 33.8211 16.5227 34.1838 16.16C34.5464 15.7973 34.7278 15.5307 34.7278 15.36V12.256H30.5998V9.056H38.0878V15.52C38.2371 16.928 38.4398 18.4213 38.6958 20H35.3998L35.2398 19.232C34.3651 19.8507 33.7038 20.16 33.2558 20.16H28.5838C27.8798 20.16 27.2184 19.968 26.5998 19.584C26.2798 19.392 25.8638 19.0507 25.3518 18.56C24.8398 18.048 24.4771 17.6427 24.2638 17.344C23.9224 16.832 23.7518 16.2133 23.7518 15.488V5.376C23.7518 4.672 23.9224 4.064 24.2638 3.552C24.4771 3.232 24.8398 2.816 25.3518 2.304C25.8851 1.77067 26.3011 1.41867 26.5998 1.248C27.1758 0.885332 27.8371 0.703999 28.5838 0.703999H33.2558C34.7278 0.703999 36.0824 1.58933 37.3198 3.36C37.6398 3.808 37.8638 4.18133 37.9918 4.48L34.7598 5.408C34.2904 4.768 33.7891 4.27733 33.2558 3.936C33.2344 3.91467 33.1811 3.904 33.0958 3.904H28.7438L28.5838 3.936C28.0078 4.256 27.5278 4.71467 27.1438 5.312L27.1118 5.44ZM56.5728 20H53.2128V12.096H46.2368V20H42.8768V0.863998H46.2368V8.896H53.2128V0.863998H56.5728V20ZM73.8933 4.064H68.7093V20H65.3493V4.064H60.1653V0.863998H73.8933V4.064ZM98.3703 0.863998L93.9223 20H90.1143L87.0423 7.168L83.9383 20H80.0983L75.7142 0.863998H79.1703L82.0503 14.304L85.2183 0.863998H88.8023L91.9703 14.304L94.8183 0.863998H98.3703ZM112.971 20H100.939V0.863998H112.971V4.064H104.299V8.896H112.363V12.096H104.299V16.8H112.971V20ZM120.799 20H117.439V0.863998H120.799V20ZM128.768 5.44V15.456C128.768 15.6267 128.939 15.8827 129.28 16.224C129.643 16.544 129.963 16.7787 130.24 16.928H130.272C130.315 16.9493 130.357 16.96 130.4 16.96H134.752L134.912 16.928C135.168 16.7787 135.477 16.5227 135.84 16.16C136.203 15.7973 136.384 15.5307 136.384 15.36V12.256H132.256V9.056H139.744V15.52C139.893 16.928 140.096 18.4213 140.352 20H137.056L136.896 19.232C136.021 19.8507 135.36 20.16 134.912 20.16H130.24C129.536 20.16 128.875 19.968 128.256 19.584C127.936 19.392 127.52 19.0507 127.008 18.56C126.496 18.048 126.133 17.6427 125.92 17.344C125.579 16.832 125.408 16.2133 125.408 15.488V5.376C125.408 4.672 125.579 4.064 125.92 3.552C126.133 3.232 126.496 2.816 127.008 2.304C127.541 1.77067 127.957 1.41867 128.256 1.248C128.832 0.885332 129.493 0.703999 130.24 0.703999H134.912C136.384 0.703999 137.739 1.58933 138.976 3.36C139.296 3.808 139.52 4.18133 139.648 4.48L136.416 5.408C135.947 4.768 135.445 4.27733 134.912 3.936C134.891 3.91467 134.837 3.904 134.752 3.904H130.4L130.24 3.936C129.664 4.256 129.184 4.71467 128.8 5.312L128.768 5.44ZM158.229 20H154.869V12.096H147.893V20H144.533V0.863998H147.893V8.896H154.869V0.863998H158.229V20ZM175.55 4.064H170.366V20H167.006V4.064H161.822V0.863998H175.55V4.064Z" fill="#45E57D"/>
<path d="M189.862 5.44V15.456C189.862 15.6267 190.032 15.8827 190.374 16.224C190.736 16.544 191.056 16.7787 191.334 16.928H191.366C191.408 16.9493 191.451 16.96 191.494 16.96H195.846L196.006 16.928C196.262 16.7787 196.571 16.5227 196.934 16.16C197.296 15.7973 197.478 15.5307 197.478 15.36V12.256H193.35V9.056H200.838V15.52C200.987 16.928 201.19 18.4213 201.446 20H198.15L197.99 19.232C197.115 19.8507 196.454 20.16 196.006 20.16H191.334C190.63 20.16 189.968 19.968 189.35 19.584C189.03 19.392 188.614 19.0507 188.102 18.56C187.59 18.048 187.227 17.6427 187.014 17.344C186.672 16.832 186.502 16.2133 186.502 15.488V5.376C186.502 4.672 186.672 4.064 187.014 3.552C187.227 3.232 187.59 2.816 188.102 2.304C188.635 1.77067 189.051 1.41867 189.35 1.248C189.926 0.885332 190.587 0.703999 191.334 0.703999H196.006C197.478 0.703999 198.832 1.58933 200.07 3.36C200.39 3.808 200.614 4.18133 200.742 4.48L197.51 5.408C197.04 4.768 196.539 4.27733 196.006 3.936C195.984 3.91467 195.931 3.904 195.846 3.904H191.494L191.334 3.936C190.758 4.256 190.278 4.71467 189.894 5.312L189.862 5.44ZM218.205 0.863998L211.869 11.648V20H208.509V11.648L202.237 0.863998H205.949L210.205 8.128L214.461 0.863998H218.205ZM237.358 20H233.998V6.912L230.19 15.296H227.982L224.174 6.944V20H220.814V0.863998H224.654L229.134 10.304L233.55 0.863998H237.358V20Z" fill="white"/>
</svg>
